<svg id="visual" viewBox="0 0 900 450" width="900" height="450" xmlns="http://www.w3.org/2000/svg" xmlns:xlink="http://www.w3.org/1999/xlink" version="1.1"><path d="M0 298L39 298L39 333L78 333L78 296L117 296L117 310L157 310L157 260L196 260L196 352L235 352L235 392L274 392L274 282L313 282L313 346L352 346L352 349L391 349L391 336L430 336L430 350L470 350L470 308L509 308L509 280L548 280L548 365L587 365L587 350L626 350L626 396L665 396L665 253L704 253L704 264L743 264L743 371L783 371L783 315L822 315L822 326L861 326L861 318L900 318L900 329L900 451L900 451L861 451L861 451L822 451L822 451L783 451L783 451L743 451L743 451L704 451L704 451L665 451L665 451L626 451L626 451L587 451L587 451L548 451L548 451L509 451L509 451L470 451L470 451L430 451L430 451L391 451L391 451L352 451L352 451L313 451L313 451L274 451L274 451L235 451L235 451L196 451L196 451L157 451L157 451L117 451L117 451L78 451L78 451L39 451L39 451L0 451Z" fill="#22222a"></path><path d="M0 355L39 355L39 336L78 336L78 405L117 405L117 405L157 405L157 332L196 332L196 335L235 335L235 378L274 378L274 384L313 384L313 334L352 334L352 351L391 351L391 407L430 407L430 359L470 359L470 386L509 386L509 405L548 405L548 430L587 430L587 402L626 402L626 324L665 324L665 339L704 339L704 371L743 371L743 365L783 365L783 330L822 330L822 367L861 367L861 349L900 349L900 389L900 451L900 451L861 451L861 451L822 451L822 451L783 451L783 451L743 451L743 451L704 451L704 451L665 451L665 451L626 451L626 451L587 451L587 451L548 451L548 451L509 451L509 451L470 451L470 451L430 451L430 451L391 451L391 451L352 451L352 451L313 451L313 451L274 451L274 451L235 451L235 451L196 451L196 451L157 451L157 451L117 451L117 451L78 451L78 451L39 451L39 451L0 451Z" fill="#b05616"></path></svg>